<svg width="51" height="58" viewBox="0 0 51 58" fill="none" xmlns="http://www.w3.org/2000/svg">
<path fill-rule="evenodd" clip-rule="evenodd" d="M50.7325 28.784C44.4974 25.1859 38.6947 21.8341 32.4415 18.2239C32.4415 20.7468 32.3274 22.8672 32.5196 24.9637C32.5676 25.5103 33.4807 26.093 34.1114 26.4534C39.0851 29.3187 44.0589 32.178 49.0867 34.9352C50.3541 35.632 50.9488 36.4669 50.7386 37.8725C50.7265 37.9506 50.7205 38.0287 50.7386 38.1068C51.8739 42.7321 49.1287 44.9066 45.4044 46.3543C44.8157 46.5825 43.8786 46.4804 43.32 46.1561C35.7092 41.8191 28.1165 37.446 20.5778 32.9829C19.9351 32.6045 19.3404 31.5352 19.3344 30.7844C19.2503 21.9422 19.2443 13.1 19.3344 4.25785C19.3404 3.45292 20.0252 2.44376 20.692 1.89713C23.7014 -0.577713 26.5427 -0.613777 30.0207 1.68687C36.0877 5.69949 42.5211 9.1715 48.8764 12.7396C50.3181 13.5505 50.7866 14.4756 50.7566 16.0434C50.6665 20.1281 50.7265 24.2128 50.7265 28.7781L50.7325 28.784Z" fill="black"/>
<path fill-rule="evenodd" clip-rule="evenodd" d="M12.8108 28.3997C12.8108 30.5862 12.9129 32.2681 12.7807 33.926C12.6606 35.4758 13.3093 36.2807 14.6308 37.0136C21.8872 41.0322 29.0955 45.1469 36.3098 49.2377C36.8204 49.526 37.2889 49.8984 38.0938 50.451C33.9311 52.9559 30.0566 55.3286 26.1161 57.5933C25.6716 57.8515 24.7465 57.6473 24.2239 57.341C16.5591 52.9319 8.91228 48.4988 1.31954 43.9756C0.688811 43.6032 0.166209 42.5459 0.118154 41.777C-0.218233 35.7281 -0.1822 35.7161 5.10388 32.6886C7.50064 31.319 9.92744 29.9975 12.8048 28.3997H12.8108Z" fill="black"/>
<path fill-rule="evenodd" clip-rule="evenodd" d="M12.7683 6.45044C12.7683 11.5863 12.7864 16.1335 12.7383 20.6808C12.7383 21.0652 12.4139 21.6119 12.0835 21.7981C8.26921 23.9666 4.42479 26.075 0.11182 28.4718C0.11182 23.3779 0.0997991 18.7826 0.141847 14.1873C0.141847 13.8809 0.466238 13.4545 0.760577 13.2863C4.56896 11.0877 8.39536 8.9313 12.7683 6.45044Z" fill="black"/>
</svg>
